<svg xmlns="http://www.w3.org/2000/svg" xmlns:xlink="http://www.w3.org/1999/xlink" viewBox="0 0 80 128"><defs><style>.cls-1{fill:none;}.cls-2{fill:#ffc107;}.cls-3{fill:#0f9d58;}.cls-4{fill:#bf360c;}.cls-11,.cls-12,.cls-4,.cls-5,.cls-6{opacity:0.2;isolation:isolate;}.cls-5{fill:#263238;}.cls-6{fill:#fff;}.cls-7{fill:url(#radial-gradient);}.cls-8{fill:url(#radial-gradient-2);}.cls-9{fill:#4285f4;}.cls-10{fill:#db4437;}.cls-11{fill:#1a237e;}.cls-12{fill:#3e2723;}.cls-13{fill:url(#radial-gradient-3);}</style><radialGradient id="radial-gradient" cx="59.28" cy="2693.09" r="44.26" gradientTransform="matrix(1, 0, 0, -1, 0, 2795.46)" gradientUnits="userSpaceOnUse"><stop offset="0" stop-color="#bf360c" stop-opacity="0.2"/><stop offset="1" stop-color="#bf360c" stop-opacity="0.02"/></radialGradient><radialGradient id="radial-gradient-2" cx="59.15" cy="2692.81" r="44.62" gradientTransform="matrix(1, 0, 0, -1, 0, 2795.46)" gradientUnits="userSpaceOnUse"><stop offset="0" stop-color="#263238" stop-opacity="0.2"/><stop offset="1" stop-color="#263238" stop-opacity="0.02"/></radialGradient><radialGradient id="radial-gradient-3" cx="-1" cy="2794.46" r="134.35" gradientTransform="matrix(1, 0, 0, -1, 0, 2795.46)" gradientUnits="userSpaceOnUse"><stop offset="0" stop-color="#fff" stop-opacity="0.1"/><stop offset="1" stop-color="#fff" stop-opacity="0"/></radialGradient></defs><title>Asset 1</title><g id="Layer_2" data-name="Layer 2"><g id="Layer_4" data-name="Layer 4"><g id="_Group_" data-name="&lt;Group&gt;"><g id="_Group_2" data-name="&lt;Group&gt;"><g id="_Group_3" data-name="&lt;Group&gt;"><path id="_Path_" data-name="&lt;Path&gt;" class="cls-1" d="M78.39,58,44.85,0H0L37,64,0,128H44.85L78.39,70A12,12,0,0,0,78.39,58Z"/><polygon id="_Path_2" data-name="&lt;Path&gt;" class="cls-2" points="59.15 102.27 48.52 83.88 23 128 44.85 128 59.44 102.77 59.15 102.27"/><path id="_Path_3" data-name="&lt;Path&gt;" class="cls-1" d="M78.39,58,44.85,0H0L37,64,0,128H44.85L78.39,70A12,12,0,0,0,78.39,58Z"/><polygon id="_Path_4" data-name="&lt;Path&gt;" class="cls-3" points="37.02 64 48.52 83.88 23 128 0 128 37.02 64"/><path id="_Path_5" data-name="&lt;Path&gt;" class="cls-1" d="M78.39,58,44.85,0H0L37,64,0,128H44.85L78.39,70A12,12,0,0,0,78.39,58Z"/><polygon id="_Path_6" data-name="&lt;Path&gt;" class="cls-4" points="44.85 127 23.58 127 23 128 44.85 128 59.44 102.77 59.15 102.27 44.85 127"/><path id="_Path_7" data-name="&lt;Path&gt;" class="cls-1" d="M78.39,58,44.85,0H0L37,64,0,128H44.85L78.39,70A12,12,0,0,0,78.39,58Z"/><polygon id="_Path_8" data-name="&lt;Path&gt;" class="cls-5" points="0.58 127 0 128 23 128 23.58 127 0.58 127"/><path id="_Path_9" data-name="&lt;Path&gt;" class="cls-1" d="M78.39,58,44.85,0H0L37,64,0,128H44.85L78.39,70A12,12,0,0,0,78.39,58Z"/><polygon id="_Path_10" data-name="&lt;Path&gt;" class="cls-6" points="0 128 0.58 128 37.31 64.5 37.02 64 0 128"/><path id="_Path_11" data-name="&lt;Path&gt;" class="cls-1" d="M78.39,58,44.85,0H0L37,64,0,128H44.85L78.39,70A12,12,0,0,0,78.39,58Z"/><polygon id="_Path_12" data-name="&lt;Path&gt;" class="cls-7" points="59.44 102.77 59.44 102.77 48.52 83.88 45.84 88.51 59.44 102.77"/><path id="_Path_13" data-name="&lt;Path&gt;" class="cls-1" d="M78.39,58,44.85,0H0L37,64,0,128H44.85L78.39,70A12,12,0,0,0,78.39,58Z"/><polygon id="_Path_14" data-name="&lt;Path&gt;" class="cls-8" points="45.84 88.51 48.52 83.88 37.02 64 31.53 73.5 45.84 88.51"/><path id="_Path_15" data-name="&lt;Path&gt;" class="cls-1" d="M78.39,58,44.85,0H0L37,64,0,128H44.85L78.39,70A12,12,0,0,0,78.39,58Z"/><g id="_Group_4" data-name="&lt;Group&gt;"><g id="_Group_5" data-name="&lt;Group&gt;"><polygon id="_Path_16" data-name="&lt;Path&gt;" class="cls-9" points="23 0 0 0 59.44 102.77 70.93 82.9 70.94 82.88 23 0"/></g></g><path id="_Path_17" data-name="&lt;Path&gt;" class="cls-1" d="M78.39,58,44.85,0H0L37,64,0,128H44.85L78.39,70A12,12,0,0,0,78.39,58Z"/><path id="_Path_18" data-name="&lt;Path&gt;" class="cls-10" d="M78.39,70a12,12,0,0,0,0-12L44.85,0H23L70.94,82.88Z"/><path id="_Path_19" data-name="&lt;Path&gt;" class="cls-1" d="M78.39,58,44.85,0H0L37,64,0,128H44.85L78.39,70A12,12,0,0,0,78.39,58Z"/><polygon id="_Path_20" data-name="&lt;Path&gt;" class="cls-11" points="70.94 82.88 70.65 82.39 59.44 101.77 0.58 0 0 0 59.44 102.77 70.93 82.9 70.94 82.88"/><path id="_Path_21" data-name="&lt;Path&gt;" class="cls-1" d="M78.39,58,44.85,0H0L37,64,0,128H44.85L78.39,70A12,12,0,0,0,78.39,58Z"/><path id="_Path_22" data-name="&lt;Path&gt;" class="cls-6" d="M44.85,1,78.39,59A12,12,0,0,1,80,64.5,12,12,0,0,0,78.39,58L44.85,0H0L.58,1Z"/><path id="_Path_23" data-name="&lt;Path&gt;" class="cls-1" d="M78.39,58,44.85,0H0L37,64,0,128H44.85L78.39,70A12,12,0,0,0,78.39,58Z"/><path id="_Path_24" data-name="&lt;Path&gt;" class="cls-12" d="M70.94,82.88,78.39,70A12,12,0,0,0,80,63.5,12,12,0,0,1,78.39,69L70.65,82.39Z"/><path id="_Path_25" data-name="&lt;Path&gt;" class="cls-1" d="M78.39,58,44.85,0H0L37,64,0,128H44.85L78.39,70A12,12,0,0,0,78.39,58Z"/><path id="_Path_26" data-name="&lt;Path&gt;" class="cls-13" d="M78.39,58,44.85,0H0L37,64,0,128H44.85L78.39,70A12,12,0,0,0,78.39,58Z"/></g></g></g></g></g></svg>